<?xml version="1.0" encoding="UTF-8" standalone="no"?><svg xmlns="http://www.w3.org/2000/svg" xmlns:xlink="http://www.w3.org/1999/xlink" contentScriptType="application/ecmascript" contentStyleType="text/css" height="826px" preserveAspectRatio="none" style="width:854px;height:826px;" version="1.1" viewBox="0 0 854 826" width="854px" zoomAndPan="magnify"><defs><filter height="300%" id="f6a7zp05223p4" width="300%" x="-1" y="-1"><feGaussianBlur result="blurOut" stdDeviation="3.5"/><feColorMatrix in="blurOut" result="blurOut2" type="matrix" values="0 0 0 0 0 0 0 0 0 0 0 0 0 0 0 0 0 0 .4 0"/><feOffset dx="7.0" dy="7.0" in="blurOut2" result="blurOut3"/><feBlend in="SourceGraphic" in2="blurOut3" mode="normal"/></filter></defs><g><text fill="#000000" font-family="sans-serif" font-size="31.5" lengthAdjust="spacingAndGlyphs" textLength="210" x="328.125" y="32.6997">States of game</text><ellipse cx="309.75" cy="71.1211" fill="#000000" filter="url(#f6a7zp05223p4)" rx="17.5" ry="17.5" style="stroke: none; stroke-width: 1.75;"/><rect fill="#FEFECE" filter="url(#f6a7zp05223p4)" height="87.5" rx="21.875" ry="21.875" style="stroke: #A80036; stroke-width: 2.625;" width="124.25" x="247.625" y="225.1211"/><line style="stroke: #A80036; stroke-width: 2.625;" x1="247.625" x2="371.875" y1="273.4375" y2="273.4375"/><text fill="#000000" font-family="sans-serif" font-size="24.5" lengthAdjust="spacingAndGlyphs" textLength="89.25" x="265.125" y="259.3042">Created</text><rect fill="#FEFECE" filter="url(#f6a7zp05223p4)" height="87.5" rx="21.875" ry="21.875" style="stroke: #A80036; stroke-width: 2.625;" width="101.5" x="259" y="472.7461"/><line style="stroke: #A80036; stroke-width: 2.625;" x1="259" x2="360.5" y1="521.0625" y2="521.0625"/><text fill="#000000" font-family="sans-serif" font-size="24.5" lengthAdjust="spacingAndGlyphs" textLength="66.5" x="276.5" y="506.9292">Active</text><rect fill="#FEFECE" filter="url(#f6a7zp05223p4)" height="87.5" rx="21.875" ry="21.875" style="stroke: #A80036; stroke-width: 2.625;" width="154" x="10.5" y="720.3711"/><line style="stroke: #A80036; stroke-width: 2.625;" x1="10.5" x2="164.5" y1="768.6875" y2="768.6875"/><text fill="#000000" font-family="sans-serif" font-size="24.5" lengthAdjust="spacingAndGlyphs" textLength="119" x="28" y="754.5542">Completed</text><rect fill="#FEFECE" filter="url(#f6a7zp05223p4)" height="87.5" rx="21.875" ry="21.875" style="stroke: #A80036; stroke-width: 2.625;" width="131.25" x="531.125" y="720.3711"/><line style="stroke: #A80036; stroke-width: 2.625;" x1="531.125" x2="662.375" y1="768.6875" y2="768.6875"/><text fill="#000000" font-family="sans-serif" font-size="24.5" lengthAdjust="spacingAndGlyphs" textLength="96.25" x="548.625" y="754.5542">Archived</text><!--MD5=[fce0a99ff020773a13d941767c2fc94a]
link *start to Created--><path d="M309.75,88.7681 C309.75,116.1748 309.75,173.4506 309.75,215.7358 " fill="none" id="*start-&gt;Created" style="stroke: #A80036; stroke-width: 1.75;"/><polygon fill="#A80036" points="309.75,224.5138,316.75,208.7638,309.75,215.7638,302.75,208.7638,309.75,224.5138" style="stroke: #A80036; stroke-width: 1.75;"/><text fill="#000000" font-family="sans-serif" font-size="22.75" lengthAdjust="spacingAndGlyphs" textLength="157.5" x="311.5" y="166.4875">created by user</text><!--MD5=[1bd8d37feb97aae84041d0c75b700753]
link Created to Active--><path d="M309.75,313.1443 C309.75,354.9763 309.75,418.8846 309.75,463.4973 " fill="none" id="Created-&gt;Active" style="stroke: #A80036; stroke-width: 1.75;"/><polygon fill="#A80036" points="309.75,472.7093,316.75,456.9593,309.75,463.9593,302.75,456.9593,309.75,472.7093" style="stroke: #A80036; stroke-width: 1.75;"/><text fill="#000000" font-family="sans-serif" font-size="22.75" lengthAdjust="spacingAndGlyphs" textLength="152.25" x="311.5" y="390.4875">started by user</text><!--MD5=[c98120a22bc131894208cf2768690fd4]
link Active to Completed--><path d="M258.9143,556.9281 C231.9258,578.7261 199.0922,607.3473 173.25,636.3711 C152.5402,659.6295 132.7482,688.1343 117.4075,712.1452 " fill="none" id="Active-&gt;Completed" style="stroke: #A80036; stroke-width: 1.75;"/><polygon fill="#A80036" points="112.3806,720.1018,126.7111,710.5258,117.0544,712.7046,114.8756,703.0478,112.3806,720.1018" style="stroke: #A80036; stroke-width: 1.75;"/><text fill="#000000" font-family="sans-serif" font-size="22.75" lengthAdjust="spacingAndGlyphs" textLength="313.25" x="175" y="661.7375">user maked move: won or draw</text><!--MD5=[0d9fd9700079d62f9a872b2907887007]
link Active to Active--><path d="M361.0128,493.2158 C392.217,487.8258 421.75,495.5853 421.75,516.4961 C421.75,535.4468 397.495,543.5966 369.7225,540.9453 " fill="none" id="Active-&gt;Active" style="stroke: #A80036; stroke-width: 1.75;"/><polygon fill="#A80036" points="361.0128,539.7763,375.6906,548.8109,369.6849,540.9413,377.5545,534.9356,361.0128,539.7763" style="stroke: #A80036; stroke-width: 1.75;"/><text fill="#000000" font-family="sans-serif" font-size="22.75" lengthAdjust="spacingAndGlyphs" textLength="0" x="439.25" y="483.2375"/><text fill="#000000" font-family="sans-serif" font-size="22.75" lengthAdjust="spacingAndGlyphs" textLength="110.25" x="432.25" y="511.8528">user joined</text><text fill="#000000" font-family="sans-serif" font-size="22.75" lengthAdjust="spacingAndGlyphs" textLength="311.5" x="432.25" y="540.468">user leaved: users in game &gt; 0</text><text fill="#000000" font-family="sans-serif" font-size="22.75" lengthAdjust="spacingAndGlyphs" textLength="371" x="432.25" y="569.0833">user maked move: not won, not draw</text><!--MD5=[2508bff857825e85727deea5a39aefd4]
link Completed to Archived--><path d="M164.8441,764.1211 C261.6128,764.1211 426.1985,764.1211 521.822,764.1211 " fill="none" id="Completed-&gt;Archived" style="stroke: #A80036; stroke-width: 1.75;"/><polygon fill="#A80036" points="530.8555,764.1211,515.1055,757.1211,522.1055,764.1211,515.1055,771.1211,530.8555,764.1211" style="stroke: #A80036; stroke-width: 1.75;"/><text fill="#000000" font-family="sans-serif" font-size="22.75" lengthAdjust="spacingAndGlyphs" textLength="302.75" x="196.4375" y="752.7375">user leaved: no users in game</text><!--MD5=[3db9fe0596d46f8e792436481f11c68a]
link Active to Archived--><path d="M360.6348,544.1583 C400.2233,565.7183 455.2573,598.8651 497,636.3711 C522.0145,658.8462 545.587,688.0888 563.5298,712.7442 " fill="none" id="Active-&gt;Archived" style="stroke: #A80036; stroke-width: 1.75;"/><polygon fill="#A80036" points="568.9128,720.236,565.4061,703.361,563.8066,713.1304,554.0372,711.5309,568.9128,720.236" style="stroke: #A80036; stroke-width: 1.75;"/><text fill="#000000" font-family="sans-serif" font-size="22.75" lengthAdjust="spacingAndGlyphs" textLength="302.75" x="530.25" y="661.7375">user leaved: no users in game</text><!--MD5=[73aad96695964c498c20b8b21579ce5c]
@startuml

title States of game

[*] - -> Created : created by user
Created - -> Active: started by user
Active - -> Completed: user maked move: won or draw
Active - -> Active: \luser joined\luser leaved: users in game > 0\luser maked move: not won, not draw
Completed -r-> Archived: user leaved: no users in game
Active -r-> Archived: user leaved: no users in game

@enduml

PlantUML version 1.2020.09(Sun May 10 13:51:06 MSK 2020)
(GPL source distribution)
Java Runtime: OpenJDK Runtime Environment
JVM: OpenJDK 64-Bit Server VM
Java Version: 11.0.7+10-b765.53
Operating System: Windows 10
Default Encoding: Cp1251
Language: en
Country: US
--></g></svg>